<?xml version="1.0" encoding="UTF-8" standalone="no"?>
<!-- Created with Inkscape (http://www.inkscape.org/) -->

<svg
   width="311.96487mm"
   height="47.997871mm"
   viewBox="0 0 311.96487 47.997871"
   version="1.1"
   id="svg1"
   xml:space="preserve"
   sodipodi:docname="banner.svg"
   inkscape:version="1.4.2 (ebf0e940d0, 2025-05-08)"
   xmlns:inkscape="http://www.inkscape.org/namespaces/inkscape"
   xmlns:sodipodi="http://sodipodi.sourceforge.net/DTD/sodipodi-0.dtd"
   xmlns="http://www.w3.org/2000/svg"
   xmlns:svg="http://www.w3.org/2000/svg"><sodipodi:namedview
     id="namedview1"
     pagecolor="#ffffff"
     bordercolor="#000000"
     borderopacity="0.25"
     inkscape:showpageshadow="2"
     inkscape:pageopacity="0.0"
     inkscape:pagecheckerboard="0"
     inkscape:deskcolor="#d1d1d1"
     inkscape:document-units="mm"
     inkscape:zoom="1.4396184"
     inkscape:cx="652.95081"
     inkscape:cy="-129.20091"
     inkscape:window-width="1920"
     inkscape:window-height="1019"
     inkscape:window-x="0"
     inkscape:window-y="0"
     inkscape:window-maximized="1"
     inkscape:current-layer="g3" /><defs
     id="defs1" /><g
     inkscape:label="Layer 1"
     inkscape:groupmode="layer"
     id="layer1"
     transform="translate(89.068707,-169.8289)"><g
       id="g3"
       transform="translate(-30.669881,92.009644)"><path
         style="fill:#d35f5f"
         d="m -53.657493,116.53222 v -2.28285 l 5.5245,-6.42885 5.524499,-6.42885 0.09696,1.65462 c 0.109482,1.8683 0.203708,2.64689 0.498751,4.12118 0.808925,4.0421 2.815423,7.91025 5.681075,10.95206 l 0.519455,0.55139 -0.265455,0.002 c -0.146,10e-4 -4.161179,0.0338 -8.922621,0.0721 l -8.657166,0.0696 z M 141.3028,109.42467 c -0.0862,-0.13946 -7.7809,-17.172498 -7.82341,-17.317921 -0.041,-0.140365 0.37455,-0.148166 7.89278,-0.148166 7.51749,0 7.9339,0.0078 7.8947,0.148166 -0.0385,0.137824 -7.84586,17.303271 -7.8969,17.362301 -0.0127,0.0147 -0.043,-0.005 -0.0672,-0.0444 z m 87.37175,-1.99325 c -0.66083,-1.47992 -3.74722,-8.299532 -3.90195,-8.621632 l -0.18628,-0.387795 0.94075,-2.067538 0.94075,-2.067539 4.36474,-0.02192 4.36474,-0.02192 0.10893,0.233588 c 0.0599,0.128473 0.4491,0.991626 0.86486,1.918117 l 0.75593,1.684529 -2.22676,4.89677 -2.22676,4.89677 -1.80023,0.002 -1.80024,0.002 z M 71.098837,106.23063 c -0.1397,-0.0631 -3.17582,-1.44657 -6.746934,-3.07447 -6.483958,-2.95572 -6.493514,-2.96045 -6.913379,-3.419847 l -0.420446,-0.460035 0.62029,-0.568514 c 1.217732,-1.116086 9.999841,-4.621277 15.197329,-7.123303 l 0.382193,-0.183985 -0.409011,1.019887 c -1.641766,4.093815 -2.140312,9.071627 -1.367737,13.656387 0.05155,0.30591 0.02296,0.31876 -0.342305,0.15388 z"
         id="path4"
         sodipodi:nodetypes="ccccsssccscccsssscccscccccssccccccssscsscsss" /><path
         style="fill:#ffcc00"
         d="m 210.04388,124.88659 c -1.11373,-0.50822 -2.0431,-0.94217 -2.06527,-0.96434 -0.0371,-0.0371 6.34218,-14.24177 7.13037,-15.877 0.19079,-0.39582 3.3567,-7.3576 7.03537,-15.470632 l 6.68848,-14.750966 2.03958,-0.0022 2.03958,-0.0022 0.10841,0.232834 c 0.1306,0.280466 20.49422,45.661344 20.54547,45.786134 0.029,0.0707 -3.71604,1.8234 -4.09808,1.91789 -0.0702,0.0174 -1.16052,-2.3018 -3.0923,-6.57719 l -2.98393,-6.604 h -12.61179 -12.61179 l -3.00724,6.62434 c -1.65398,3.6434 -3.02629,6.62143 -3.04957,6.61786 -0.0233,-0.004 -0.95357,-0.42231 -2.06729,-0.93053 z m 31.25156,-17.07417 c -0.0197,-0.0349 -2.37141,-5.27366 -5.22614,-11.641636 -2.85473,-6.367974 -5.19871,-11.568624 -5.20884,-11.557001 -0.0196,0.02249 -10.44017,22.976867 -10.51224,23.156297 -0.0339,0.0843 2.09381,0.10584 10.47022,0.10584 5.78199,0 10.49665,-0.0286 10.477,-0.0635 z m -263.710934,17.46923 c -3.536062,-0.4067 -6.64631,-1.51752 -9.482666,-3.3867 -1.389263,-0.91553 -2.188892,-1.56241 -3.459408,-2.79858 -4.060172,-3.95041 -6.339,-8.5196 -6.989535,-14.01445 -0.462662,-3.90795 -0.09881,-7.637142 1.097307,-11.246375 1.098939,-3.316014 2.851492,-6.168313 5.412309,-8.808594 2.966546,-3.058598 6.161198,-4.940463 10.07766,-5.936421 2.124301,-0.540211 2.964092,-0.633519 5.715,-0.63499 2.522578,-0.0013 3.110649,0.05003 4.868333,0.42536 4.213186,0.899665 7.8214752,2.902809 11.0489995,6.13386 2.6305106,2.633384 4.51404998,5.64067 5.6217854,8.975823 0.8607637,2.591574 1.1431351,4.312385 1.2087018,7.365997 0.049619,2.31087 -0.067914,3.8423 -0.4422112,5.76193 -1.1748062,6.02513 -4.6029561,11.15503 -9.7807863,14.63599 -2.6979912,1.81382 -5.4738422,2.88319 -8.8418232,3.40623 -1.421292,0.22073 -4.628851,0.2848 -6.053666,0.12092 z m 5.054497,-4.66634 c 1.938946,-0.25214 3.462165,-0.70137 5.179102,-1.52739 1.986667,-0.9558 3.4752099,-2.05157 5.1792568,-3.81262 2.686902,-2.77679 4.2024083,-5.85131 4.8785055,-9.89705 0.2204016,-1.31888 0.221617,-5.604262 0.00195,-6.858 -0.7294302,-4.163091 -2.3217861,-7.229311 -5.3012734,-10.208063 -1.9515942,-1.951113 -3.7423459,-3.173078 -5.9408659,-4.053902 -2.142693,-0.858458 -4.091374,-1.21432 -6.638167,-1.21224 -2.256885,0.0018 -3.885175,0.240912 -5.713836,0.838915 -5.181973,1.694594 -9.718003,6.48964 -11.342766,11.990458 -0.606743,2.054196 -0.804291,3.549744 -0.802298,6.073832 0.0021,2.70743 0.31748,4.67686 1.090407,6.80999 1.323069,3.65141 4.046376,7.04863 7.45516,9.30002 2.017414,1.33244 4.712196,2.30548 7.18187,2.59324 1.059036,0.1234 3.696102,0.10285 4.77296,-0.0372 z m 43.586502,4.60732 c -2.132136,-0.17967 -4.765471,-0.74513 -6.646333,-1.42717 -5.299198,-1.92162 -9.9201725,-6.05784 -12.4884838,-11.17842 -1.6113882,-3.2127 -2.4128496,-6.82269 -2.4128496,-10.86808 0,-2.344204 0.1921312,-3.951287 0.7201978,-6.024099 0.7170039,-2.814445 2.1008039,-5.677816 3.9257695,-8.123236 0.8393791,-1.124752 3.1197551,-3.396708 4.2585031,-4.242779 3.554652,-2.641048 7.540861,-4.232114 12.008196,-4.792984 1.28935,-0.161876 4.983825,-0.136226 6.431662,0.04466 5.865747,0.732818 10.657229,3.00111 14.271105,6.755954 0.930093,0.966374 2.018291,2.311772 1.973779,2.440291 -0.03918,0.113133 -3.310492,2.626175 -3.41488,2.623334 -0.04657,-0.0013 -0.237067,-0.196022 -0.423333,-0.432788 -0.186267,-0.236766 -0.740223,-0.835313 -1.231013,-1.330104 -3.076401,-3.101483 -6.681502,-4.964736 -10.918654,-5.643174 -1.174242,-0.188016 -4.344652,-0.262095 -5.60966,-0.131074 -4.600095,0.476447 -8.619998,2.481871 -12.005282,5.98912 -2.969295,3.076274 -4.6981435,6.754206 -5.1557748,10.968337 -0.1147734,1.056892 -0.1147734,3.479432 0,4.536332 0.4784044,4.40542 2.3286098,8.16495 5.5522798,11.28196 2.976385,2.87791 6.436347,4.54358 10.842598,5.21976 1.336361,0.20507 4.963149,0.2049 6.291173,-3e-4 4.856445,-0.7504 8.768631,-2.87168 12.189987,-6.60968 0.382484,-0.41788 0.479242,-0.48298 0.602981,-0.4057 0.336143,0.20992 3.253667,2.48942 3.280171,2.56284 0.04086,0.11319 -1.072488,1.41982 -1.976783,2.31995 -3.714332,3.69725 -8.99771,5.9818 -14.968801,6.47257 -1.24265,0.10213 -3.852569,0.0993 -5.096555,-0.006 z m 65.997665,-0.0436 c -5.383223,-0.40211 -9.884961,-2.39856 -13.832444,-6.13447 -2.71688,-2.57126 -4.803246,-5.77801 -5.98056,-9.19215 -0.920239,-2.66863 -1.295321,-5.02772 -1.296944,-8.15716 -0.0026,-5.083359 1.283269,-9.533268 3.87739,-13.417796 5.115443,-7.660045 13.383662,-11.252609 22.498989,-9.775872 5.997519,0.971634 11.455099,4.612954 15.097429,10.073071 0.7293,1.093278 1.90806,3.424458 2.37187,4.690746 0.84809,2.315441 1.30074,4.854681 1.37005,7.685751 0.11199,4.57371 -0.60382,8.08038 -2.39003,11.70843 -1.12893,2.29303 -2.46436,4.14994 -4.31656,6.00214 -3.57691,3.57691 -7.87098,5.71292 -12.784857,6.35961 -1.00533,0.13231 -3.714685,0.22491 -4.614333,0.1577 z m 4.739207,-4.85833 c 3.545673,-0.61984 6.466903,-2.1211 9.135073,-4.69464 3.17675,-3.06408 5.02029,-6.85866 5.51349,-11.34848 0.23043,-2.09765 0.0809,-5.155264 -0.34982,-7.150985 -1.3999,-6.487114 -6.80354,-12.163931 -13.095863,-13.757914 -3.277123,-0.830167 -7.203387,-0.6994 -10.32409,0.343852 -4.25894,1.423766 -8.055113,4.860388 -10.184313,9.219717 -1.218329,2.494409 -1.796734,4.927551 -1.912055,8.04333 -0.211234,5.70717 1.620828,10.47999 5.522199,14.38622 2.966784,2.97048 6.436502,4.67096 10.45246,5.12268 1.21205,0.13633 4.029688,0.0483 5.242919,-0.16378 z M 169.3545,101.78345 V 78.327249 h 6.22541 c 5.00082,0 6.47059,0.02558 7.47183,0.130036 4.12084,0.429917 7.17606,1.668727 9.41468,3.817409 1.75724,1.686642 2.81878,3.718583 3.26773,6.254889 0.23045,1.30191 0.21149,3.699316 -0.0385,4.868333 -0.23494,1.09864 -0.51432,1.944208 -0.94955,2.873936 -0.34412,0.735085 -1.20253,2.067302 -1.72575,2.67827 l -0.29562,0.345207 0.82438,0.558502 c 2.04682,1.386669 3.49,3.000729 4.4985,5.031139 1.26933,2.55553 1.65935,5.59579 1.10922,8.6464 -0.96473,5.34957 -5.22017,9.70673 -10.88051,11.14059 -2.08093,0.52714 -1.70455,0.50815 -10.68799,0.53921 l -8.23383,0.0285 z m 16.7227,18.63892 c 2.43916,-0.45824 4.37655,-1.42334 5.93421,-2.95608 1.95865,-1.92732 2.83467,-4.19587 2.71912,-7.0415 -0.0975,-2.40057 -0.89537,-4.19145 -2.57023,-5.76893 -1.38706,-1.30641 -2.65362,-1.9303 -6.45604,-3.18018 -1.60382,-0.52719 -3.02775,-0.98306 -3.16427,-1.01304 -0.13652,-0.03 -0.21588,-0.0845 -0.17636,-0.12109 0.0395,-0.0366 1.19582,-0.665401 2.56954,-1.397316 1.37371,-0.731915 2.74531,-1.495158 3.048,-1.696097 0.55101,-0.365796 1.49367,-1.261576 1.91337,-1.818221 0.33981,-0.450688 1.01427,-1.916537 1.18817,-2.582333 0.23432,-0.897141 0.21518,-3.037839 -0.0362,-4.047181 -0.64269,-2.58064 -2.28162,-4.174663 -5.2667,-5.122375 -1.83529,-0.582674 -4.01109,-0.772237 -8.91116,-0.776368 l -2.8575,-0.0024 v 18.887941 18.88794 l 5.56683,-0.0388 c 5.17586,-0.0361 5.63232,-0.0511 6.4992,-0.21396 z m 15.7893,-18.64245 V 78.409237 l 2.3495,0.02251 2.3495,0.02251 v 23.325673 23.32566 l -2.3495,0.0225 -2.3495,0.0225 z m -260.265326,-0.0847 V 78.327249 h 2.370666 2.370667 v 21.124334 21.124337 h 8.974666 8.974667 v 2.24366 2.24367 h -11.345333 -11.345333 z m 108.11933,0 V 78.327249 h 2.412605 2.412604 l 0.02156,8.731483 0.02156,8.731483 9.271,-8.72719 9.271,-8.727189 3.118555,-0.0043 c 1.856468,-0.0026 3.107134,0.02712 3.090334,0.07333 -0.01552,0.04269 -5.038373,4.75311 -11.161889,10.467593 -6.123517,5.714483 -11.129496,10.408983 -11.124398,10.432221 0.0051,0.02324 5.415297,5.79547 12.022666,12.82719 6.607369,7.03172 12.026258,12.81837 12.041975,12.85922 0.01616,0.042 -1.307548,0.0646 -3.046235,0.052 l -3.074813,-0.0222 -10.204097,-10.84946 -10.204098,-10.84945 -0.02149,10.87062 -0.02149,10.87062 h -2.41268 -2.412681 z m 65.362666,23.32105 c 0,-0.0258 1.4859,-10.49978 3.302,-23.27547 1.8161,-12.77568 3.302,-23.270152 3.302,-23.321046 0,-0.05256 0.15698,-0.09254 0.36341,-0.09254 h 0.36342 l 9.47908,19.126832 c 5.2135,10.519764 9.50623,19.101314 9.5394,19.070124 0.0332,-0.0312 4.28179,-8.62874 9.44137,-19.10567 l 9.38106,-19.048952 0.35409,-0.02581 c 0.34123,-0.02487 0.35587,-0.01565 0.40311,0.254 0.0712,0.406459 6.64906,46.301802 6.64906,46.392162 0,0.0436 -0.9822,0.0664 -2.30396,0.0535 l -2.30397,-0.0225 -2.25559,-16.55734 c -1.24058,-9.106531 -2.27103,-16.603646 -2.2899,-16.660253 -0.0189,-0.05661 -3.74544,7.405262 -8.28128,16.581933 l -8.24696,16.68485 -0.58429,-0.0246 -0.58429,-0.0246 -8.30706,-16.74284 c -4.56888,-9.208555 -8.32997,-16.742831 -8.35798,-16.742831 -0.028,0 -1.05438,7.439026 -2.28084,16.531171 -1.22646,9.09214 -2.24923,16.63594 -2.27282,16.764 l -0.0429,0.23283 h -2.23309 c -1.22819,0 -2.23308,-0.0211 -2.23308,-0.0469 z"
         id="path3"
         sodipodi:nodetypes="sssscccsssscccscssssssscsssssscsssssssccssscsscsscsssccccsssssscsscssssssssssssssscccsscssssssssccsscsssssscccssssssscsssssccsssssssssssssscccssscccccccccccccccccccccccccccccccssssscccccccccsssscssscsssscssscccsssscsss" /></g></g></svg>
